# xmcd
# 
# Track frame offsets:
#     150
#     19562
#     33661
#     48610
#     71296
#     92930
#     103802
#     124100
#     143799
#     165044
#     179796
#     194119
#     205817
#     220790
#     238314
#     255962
#     271086
#     288133
#     308156
# 
# Disc length: 4377
# 
# Revision: 6
# Processed by: cddbd v1.5.2PL0 Copyright (c) Steve Scherf et al.
# Submitted via: fre:ac v1.0.17
# 
DISCID=16111713
DTITLE=Various Artist - Romantic Collection - More Gold [CDTwo)
DYEAR=0
DGENRE=Various
TTITLE0=Andrew Lloyd - The Phantom Of The Opera
TTITLE1=Simon and Garfunkel - The Sound Of Silence
TTITLE2=Tony Carey - Room With A View
TTITLE3=Roxette - Crash! Boom! Bang!
TTITLE4=Scorpions - Believe In Love
TTITLE5=Francis Goya - Concerto D'Aranjuez
TTITLE6=Whitney Houston - I Will Always Love You
TTITLE7=Rob Steward - Sailing
TTITLE8=ABBA - Eagle
TTITLE9=Smjkie - Stranger
TTITLE10=Chris Isaak - Graduation Day
TTITLE11=Cher - Gipsy Love
TTITLE12=The Alan Parsons Project - The Turn Of Friendly Card
TTITLE13=Barbara Streisand - Memory
TTITLE14=ART of Noise - Peter Gun
TTITLE15=Kansas - Dust In The Wind
TTITLE16=Patricia Kaas - Mademoiselle Chante Le Blues
TTITLE17=R.E.M. - Loosing My Religion
TTITLE18=Symphonic Rock Orchestra - The Phantom Of The Opera
EXTD=
EXTT0=
EXTT1=
EXTT2=
EXTT3=
EXTT4=
EXTT5=
EXTT6=
EXTT7=
EXTT8=
EXTT9=
EXTT10=
EXTT11=
EXTT12=
EXTT13=
EXTT14=
EXTT15=
EXTT16=
EXTT17=
EXTT18=
PLAYORDER=
